<svg width="33" height="32" viewBox="0 0 33 32" fill="none" xmlns="http://www.w3.org/2000/svg">
<path fill-rule="evenodd" clip-rule="evenodd" d="M10.2998 20.5H6.2998L3.2998 27V29.5H30.2998V27L27.2998 20.5H22.7998" fill="#DBE3E8"/>
<path d="M29.7998 27H3.7998V29H29.7998V27Z" fill="white"/>
<path d="M10.2998 20C10.5759 20 10.7998 20.2239 10.7998 20.5C10.7998 20.7455 10.6229 20.9496 10.3897 20.9919L10.2998 21H6.6188L3.7998 27.107V29H29.7998V27.109L26.9798 21H22.7998C22.5543 21 22.3502 20.8231 22.3079 20.5899L22.2998 20.5C22.2998 20.2545 22.4767 20.0504 22.7099 20.0081L22.7998 20H27.2998C27.467 20 27.6211 20.0833 27.7131 20.2186L27.7538 20.2905L30.7538 26.7905L30.7998 27V29.5C30.7998 29.7455 30.6229 29.9496 30.3897 29.9919L30.2998 30H3.2998C3.05434 30 2.8502 29.8231 2.80786 29.5899L2.7998 29.5V27L2.84582 26.7905L5.84583 20.2905C5.91588 20.1387 6.05609 20.0337 6.21754 20.0068L6.2998 20H10.2998Z" fill="black"/>
<path d="M16.8003 2C21.2182 2 24.7998 5.61328 24.7998 10.0703C24.7998 11.5528 24.4039 12.9423 23.7127 14.1352L17.915 22.9684C17.5109 23.584 16.6843 23.7555 16.0687 23.3514C15.9161 23.2513 15.7858 23.1209 15.6856 22.9684L9.88796 14.1352C9.19672 12.9423 8.7998 11.5528 8.7998 10.0703C8.7998 5.61328 12.3814 2 16.8003 2Z" fill="black"/>
<path d="M16.8003 3C20.664 3 23.7998 6.16361 23.7998 10.0703C23.7998 11.2365 23.521 12.3592 22.9965 13.3631L22.8474 13.6339L17.079 22.4197L17.0297 22.4787C16.92 22.5829 16.7493 22.602 16.6174 22.5154L16.5646 22.4725L16.5217 22.4197L10.724 13.5865L10.5815 13.3264C10.0791 12.3583 9.7998 11.2355 9.7998 10.0703C9.7998 6.16346 12.9358 3 16.8003 3ZM16.7998 7C15.143 7 13.7998 8.34315 13.7998 10C13.7998 11.6569 15.143 13 16.7998 13C18.4567 13 19.7998 11.6569 19.7998 10C19.7998 8.34315 18.4567 7 16.7998 7Z" fill="#F85B5B"/>
<path d="M16.7998 8C15.6952 8 14.7998 8.89543 14.7998 10C14.7998 11.1046 15.6952 12 16.7998 12C17.9044 12 18.7998 11.1046 18.7998 10C18.7998 8.89543 17.9044 8 16.7998 8Z" fill="white"/>
</svg>
