<svg xmlns="http://www.w3.org/2000/svg" width="36" height="36" viewBox="0 0 36 36">
    <g fill="none" fill-rule="evenodd">
        <path d="M0 0H36V36H0z"/>
        <path fill="#71C865" d="M5.625 4.375v17.491c0 1.304.636 2.526 1.703 3.275l10.098 7.081c.344.242.804.242 1.148 0l10.098-7.081c1.067-.749 1.703-1.971 1.703-3.275V4.375c0-.552-.448-1-1-1H6.625c-.552 0-1 .448-1 1z"/>
        <path fill="#FE0" d="M27.557 32.114l.005 1.074-.005-1c-.018-3.492 2.991-6.336 6.722-6.353h.033c-3.733 0-6.765-2.823-6.783-6.316l-.005-.956v.992c0 3.468-3.005 6.28-6.712 6.28 3.712 0 6.726 2.806 6.745 6.28z"/>
        <path fill="#333" fill-rule="nonzero" d="M29.25 3.375c.577 0 1.052.434 1.117.994l.008.131v17.106c0 .695-.16 1.369-.457 1.975 1.124 1.045 2.676 1.691 4.395 1.691.749 0 .75 1.124 0 1.125l-.287.006c-3.308.14-5.923 2.689-5.906 5.781l.005 1c.004.75-1.121.756-1.125.006l-.006-1.073c-.009-1.717-.83-3.26-2.125-4.309l-6.223 4.364c-.345.242-.791.269-1.158.08l-.134-.08-9.813-6.882c-1.13-.793-1.83-2.057-1.909-3.426l-.007-.258V4.5c0-.577.434-1.052.994-1.117l.131-.008h22.5zm0 1.125H6.75v17.106c0 1.027.467 1.994 1.262 2.632l.175.131L18 31.251l5.858-4.109c-.898-.474-1.937-.745-3.046-.745l-.118-.01c-.63-.111-.59-1.115.119-1.115l.254-.004c3.285-.124 5.894-2.643 5.894-5.713v-.992c0-.749 1.121-.751 1.125-.004l.005.957c.006 1.147.372 2.217 1 3.116.082-.26.134-.53.152-.807l.007-.219V4.5zm-1.712 17.665c-.707 1.611-2.047 2.909-3.725 3.625l-.108.043.113.046c1.681.714 3.026 2.01 3.741 3.62l.073-.159c.726-1.52 2.02-2.747 3.63-3.442l.148-.062-.119-.048c-1.614-.686-2.919-1.905-3.659-3.42zM20.812 6.75c.311 0 .563.252.563.563v3.937h3.938c.31 0 .562.252.562.563v5.624c0 .311-.252.563-.563.563h-3.937v3.938c0 .31-.252.562-.563.562h-5.625c-.31 0-.562-.252-.562-.563V18h-3.938c-.31 0-.562-.252-.562-.563v-5.625c0-.31.252-.562.563-.562h3.937V7.312c0-.31.252-.562.563-.562h5.624z"/>
        <path fill="#FFF" fill-rule="nonzero" d="M20.25 7.875L15.75 7.875 15.75 12.375 11.25 12.375 11.25 16.875 15.75 16.875 15.75 21.375 20.25 21.375 20.25 16.875 24.75 16.875 24.75 12.375 20.25 12.375z"/>
    </g>
</svg>
