<svg width="33" height="32" viewBox="0 0 33 32" fill="none" xmlns="http://www.w3.org/2000/svg">
<path fill-rule="evenodd" clip-rule="evenodd" d="M6.2998 27H10.7998V29C10.7998 29.5523 10.3521 30 9.7998 30H7.2998C6.74752 30 6.2998 29.5523 6.2998 29V27ZM22.7998 27H27.2998V29C27.2998 29.5523 26.8521 30 26.2998 30H23.7998C23.2475 30 22.7998 29.5523 22.7998 29V27Z" fill="#787B81"/>
<path fill-rule="evenodd" clip-rule="evenodd" d="M9.2998 20H24.2998C25.9567 20 27.2998 21.3431 27.2998 23V28H6.2998V23C6.2998 21.3431 7.64295 20 9.2998 20Z" fill="#DDE9FD"/>
<path d="M10.1849 1.73386L10.0991 1.7739C9.80541 1.94427 9.74484 2.36103 10.004 2.60642L14.448 6.81347L11.3775 7.93126L9.48985 6.54409C8.78405 6.02537 7.86567 5.89383 7.04264 6.19356L6.14458 6.52061C5.80869 6.64294 5.69131 7.05837 5.91352 7.3384L9.05833 11.3013C9.75909 12.1843 10.9463 12.5199 12.0056 12.1343L26.4294 6.88426C27.51 6.49109 28.0672 5.29626 27.6735 4.21598L27.612 4.06526C27.1669 3.08475 26.0346 2.5972 25.0055 2.97163L20.3418 4.66903L13.8731 1.29667C13.2214 0.956896 12.4569 0.9066 11.7663 1.15806L10.1849 1.73386Z" fill="#75A8F9"/>
<path d="M16.7998 13.5C19.02 13.5 20.943 13.6023 22.5703 13.8075C23.4844 13.9228 24.2556 14.5302 24.5866 15.3796L24.6468 15.5527L25.7068 19H27.2998C27.8521 19 28.2998 19.4477 28.2998 20C28.2998 20.5523 27.8521 21 27.2998 21L26.536 21.0001C27.011 21.5308 27.2998 22.2317 27.2998 23L27.2988 27.5H27.2998V29C27.2998 29.5128 26.9138 29.9355 26.4164 29.9933L26.2998 30H23.7998C23.287 30 22.8643 29.614 22.8065 29.1166L22.7998 29V28H10.7998V29C10.7998 29.5128 10.4138 29.9355 9.91643 29.9933L9.7998 30H7.2998C6.78697 30 6.3643 29.614 6.30653 29.1166L6.2998 29V28V23C6.2998 22.2317 6.58862 21.5308 7.06361 21.0001L6.2998 21C5.74752 21 5.2998 20.5523 5.2998 20C5.2998 19.4477 5.74752 19 6.2998 19H7.8918L8.95278 15.5527C9.2418 14.6134 10.0543 13.9305 11.0294 13.8075C12.6566 13.6023 14.5796 13.5 16.7998 13.5ZM9.7998 28H7.2998V29H9.7998V28ZM26.2998 28H23.7998V29H26.2998V28ZM24.2998 21H9.2998C8.24544 21 7.38164 21.8159 7.30529 22.8507L7.2998 23L7.2988 27H26.2988L26.2998 23C26.2998 21.9456 25.4839 21.0818 24.4491 21.0055L24.2998 21ZM10.7998 22.25C11.7663 22.25 12.5498 23.0335 12.5498 24C12.5498 24.9665 11.7663 25.75 10.7998 25.75C9.83331 25.75 9.0498 24.9665 9.0498 24C9.0498 23.0335 9.83331 22.25 10.7998 22.25ZM22.7998 22.25C23.7663 22.25 24.5498 23.0335 24.5498 24C24.5498 24.9665 23.7663 25.75 22.7998 25.75C21.8333 25.75 21.0498 24.9665 21.0498 24C21.0498 23.0335 21.8333 22.25 22.7998 22.25ZM16.7998 14.5C14.6188 14.5 12.7366 14.6001 11.1545 14.7997C10.6182 14.8673 10.1639 15.2172 9.95833 15.7092L9.90856 15.8467L8.60486 20.0809C8.82791 20.028 9.06059 20 9.2998 20H24.2998C24.539 20 24.7717 20.028 24.9947 20.0809L23.6911 15.8468C23.5176 15.2832 23.0301 14.8735 22.4451 14.7997C20.863 14.6001 18.9808 14.5 16.7998 14.5ZM13.6927 1.21119L13.8731 1.29667L20.3418 4.66903L25.0055 2.97163C25.9832 2.61592 27.0539 3.03815 27.5401 3.92192L27.612 4.06526L27.6735 4.21598C28.0493 5.24715 27.5587 6.38271 26.5734 6.82576L26.4294 6.88426L12.0056 12.1343C11.0052 12.4985 9.89061 12.2194 9.17952 11.4434L9.05832 11.3013L5.91352 7.3384C5.70982 7.08171 5.79148 6.71124 6.06523 6.55705L6.14458 6.52061L7.04264 6.19356C7.80688 5.91524 8.65334 6.00878 9.33546 6.43888L9.48985 6.54409L11.3775 7.93126L14.448 6.81347L10.004 2.60642C9.7684 2.38334 9.79704 2.01863 10.0249 1.82616L10.0991 1.7739L10.1849 1.73386L11.7663 1.15806C12.3941 0.92946 13.083 0.950245 13.6927 1.21119ZM12.2705 2.04815L12.1084 2.09771L11.2498 2.409L16.3105 7.19965L11.2166 9.05402L8.89764 7.34988C8.50496 7.06129 8.00584 6.96656 7.53905 7.08557L7.38484 7.13319L7.1078 7.234L9.84165 10.6797C10.2439 11.1866 10.9054 11.4016 11.5222 11.2389L11.6636 11.1946L26.0875 5.94453C26.6115 5.75385 26.8986 5.2004 26.7794 4.70004L26.7476 4.59379L26.7014 4.47857C26.486 4.004 25.9617 3.75488 25.4622 3.8766L25.3475 3.91133L20.27 5.75933L13.4108 2.18339C13.0583 1.99961 12.6524 1.95283 12.2705 2.04815Z" fill="#333333"/>
<path d="M10.7998 25C11.3521 25 11.7998 24.5523 11.7998 24C11.7998 23.4477 11.3521 23 10.7998 23C10.2475 23 9.7998 23.4477 9.7998 24C9.7998 24.5523 10.2475 25 10.7998 25Z" fill="white"/>
<path d="M22.7998 25C23.3521 25 23.7998 24.5523 23.7998 24C23.7998 23.4477 23.3521 23 22.7998 23C22.2475 23 21.7998 23.4477 21.7998 24C21.7998 24.5523 22.2475 25 22.7998 25Z" fill="white"/>
</svg>
