<?xml version="1.0" encoding="utf-8"?>
<!-- Generator: Adobe Illustrator 22.0.1, SVG Export Plug-In . SVG Version: 6.00 Build 0)  -->
<svg version="1.1" id="Layer_1" xmlns="http://www.w3.org/2000/svg" xmlns:xlink="http://www.w3.org/1999/xlink" x="0px" y="0px"
	 viewBox="0 0 133 43.5" style="enable-background:new 0 0 133 43.5;" xml:space="preserve">
<style type="text/css">
	.st0{fill:#FFFFFF;}
</style>
<path class="st0" d="M32,19.5c0-4.1-3.8-10-11-10c-6.6,0-11,5.7-11,11.5c0,6.9,4.8,11.9,13,11.9h15.6c-3.7,5.7-10.1,9.4-17.5,9.4
	C9.4,42.3,0,32.8,0,21.2S9.4,0,21.1,0c11.6,0,21.2,9.5,21.2,21.2c0,2.3-0.4,4.5-1,6.6H17.6v-2.3l8.3-0.3C30.1,25,32,22.9,32,19.5"/>
<g>
	<path class="st0" d="M36.9,40.6v0.3h-0.5v1.4H36v-1.4h-0.5v-0.3H36.9z"/>
	<path class="st0" d="M38.3,40.6h0.5v1.7h-0.3v-1.2c0,0,0-0.1,0-0.1s0-0.1,0-0.1l-0.3,1.5h-0.4l-0.3-1.5c0,0,0,0.1,0,0.1
		c0,0.1,0,0.1,0,0.1v1.2h-0.3v-1.7h0.5l0.3,1.4L38.3,40.6z"/>
</g>
<path class="st0" d="M60.1,10.5c0-1.2-1.1-2.9-3.2-2.9c-1.9,0-3.2,1.7-3.2,3.4c0,2,1.4,3.5,3.8,3.5H62c-1.1,1.7-3,2.8-5.1,2.8
	c-3.4,0-6.2-2.8-6.2-6.2c0-3.4,2.8-6.2,6.2-6.2c3.4,0,6.2,2.8,6.2,6.2c0,0.7-0.1,1.3-0.3,1.9h-6.9v-0.7l2.4-0.1
	C59.5,12.1,60.1,11.5,60.1,10.5"/>
<polygon class="st0" points="68.2,8.6 70.6,5.1 73.8,5.1 69.8,10.7 74.2,16.8 70.7,16.8 68.1,13 65.5,16.8 62.2,16.8 66.5,10.9 
	62.4,5.1 65.8,5.1 "/>
<path class="st0" d="M80.9,14.6c1.8,0,3.3-1.5,3.3-3.7s-1.5-3.7-3.3-3.7c-1.7,0-3.3,1.5-3.3,3.7S79.1,14.6,80.9,14.6 M77.8,7.4
	c0.9-1.8,2.4-2.6,3.9-2.6c2.8,0,5.4,2.4,5.4,6.2s-2.6,6.2-5.4,6.2c-1.6,0-3.1-0.8-3.9-2.6c-0.1-0.1-0.1-0.1-0.1,0v7.1h-3V5.1h3v2.3
	C77.6,7.5,77.7,7.5,77.8,7.4"/>
<path class="st0" d="M97.4,10.5c0-1.2-1.1-2.9-3.2-2.9c-1.9,0-3.2,1.7-3.2,3.4c0,2,1.4,3.5,3.8,3.5h4.6c-1.1,1.7-3,2.8-5.1,2.8
	c-3.4,0-6.2-2.8-6.2-6.2c0-3.4,2.8-6.2,6.2-6.2c3.4,0,6.2,2.8,6.2,6.2c0,0.7-0.1,1.3-0.3,1.9h-6.9v-0.7l2.4-0.1
	C96.9,12.1,97.4,11.5,97.4,10.5"/>
<path class="st0" d="M107.6,7.3c-1.8,0-3.3,1.5-3.3,3.7s1.5,3.7,3.3,3.7c1.7,0,3.3-1.5,3.3-3.7S109.3,7.3,107.6,7.3 M110.7,14.5
	c-0.9,1.8-2.4,2.6-3.9,2.6c-2.8,0-5.4-2.4-5.4-6.2s2.6-6.2,5.4-6.2c1.6,0,3.1,0.8,3.9,2.6c0,0.1,0.1,0.1,0.1,0V0.1h3v16.7h-3v-2.3
	C110.9,14.4,110.8,14.4,110.7,14.5"/>
<path class="st0" d="M119,16.8h-3V5.1h3V16.8z M115.8,1.8c0-1,0.8-1.8,1.8-1.8c1,0,1.8,0.8,1.8,1.8c0,1-0.8,1.8-1.8,1.8
	C116.6,3.5,115.8,2.7,115.8,1.8"/>
<path class="st0" d="M126.7,7.3c-1.8,0-3.3,1.5-3.3,3.7s1.5,3.7,3.3,3.7c1.7,0,3.3-1.5,3.3-3.7S128.5,7.3,126.7,7.3 M129.9,14.5
	c-0.9,1.8-2.4,2.6-3.9,2.6c-2.8,0-5.4-2.4-5.4-6.2s2.6-6.2,5.4-6.2c1.6,0,3.1,0.8,3.9,2.6c0,0.1,0.1,0.1,0.1,0V5.1h3v11.7h-3v-2.3
	C130,14.4,129.9,14.4,129.9,14.5"/>
<path class="st0" d="M57.9,28c-1.7,0-3.2,1.5-3.2,3.6c0,2.1,1.5,3.6,3.2,3.6c1.7,0,3.2-1.5,3.2-3.6C61.1,29.5,59.6,28,57.9,28
	 M61.1,35.2c0-0.1-0.1-0.1-0.1,0c-0.9,1.8-2.4,2.6-3.9,2.6c-2.8,0-5.3-2.4-5.3-6.1s2.5-6.1,5.3-6.1c1.5,0,3,0.8,3.9,2.6
	c0.1,0.1,0.1,0.1,0.1,0v-2.3h3v11c0,3.2-2.2,5.8-6.1,5.8c-2.2,0-4-0.8-5.4-2l1.8-2c1.2,1,2.2,1.5,3.6,1.5c2.2,0,3.1-1.6,3.1-3.5
	V35.2z"/>
<path class="st0" d="M69.3,25.9v2.5c0,0.1,0,0.1,0.1,0c0.4-2.1,1.3-2.9,2.9-2.9h0.3v3.2h-1.4c-1.2,0-1.9,1-1.9,2.3v6.5h-3V25.9H69.3
	z"/>
<path class="st0" d="M78.9,28.2c-1.8,0-3.3,1.5-3.3,3.5c0,2,1.5,3.5,3.3,3.5s3.3-1.5,3.3-3.5C82.1,29.7,80.7,28.2,78.9,28.2
	 M78.9,25.5c3.4,0,6.2,2.8,6.2,6.2c0,3.4-2.8,6.2-6.2,6.2c-3.4,0-6.2-2.8-6.2-6.2C72.6,28.3,75.4,25.5,78.9,25.5"/>
<path class="st0" d="M91.3,37.9c-2.9,0-4.8-1.8-4.8-4.4v-7.6h3v7.4c0,1.2,0.8,1.9,1.9,1.9c1,0,1.8-0.8,1.8-1.9v-7.4h3v7.6
	C96.2,36.1,94.2,37.9,91.3,37.9"/>
<path class="st0" d="M104.5,35.4c1.8,0,3.3-1.5,3.3-3.7s-1.5-3.7-3.3-3.7c-1.7,0-3.3,1.5-3.3,3.7S102.8,35.4,104.5,35.4 M101.4,28.2
	c0.9-1.8,2.4-2.6,3.9-2.6c2.8,0,5.4,2.4,5.4,6.2s-2.6,6.2-5.4,6.2c-1.6,0-3.1-0.8-3.9-2.6c-0.1-0.1-0.1-0.1-0.1,0v7.1h-3V25.9h3v2.3
	C101.3,28.2,101.4,28.3,101.4,28.2"/>
<g>
	<path class="st0" d="M113.9,25.9v0.3h-0.5v1.4H113v-1.4h-0.5v-0.3H113.9z"/>
</g>
<g>
	<path class="st0" d="M115.2,25.9h0.5v1.7h-0.3v-1.2c0,0,0-0.1,0-0.1c0-0.1,0-0.1,0-0.1l-0.3,1.5h-0.4l-0.3-1.5c0,0,0,0.1,0,0.1
		s0,0.1,0,0.1v1.2h-0.3v-1.7h0.5l0.3,1.4L115.2,25.9z"/>
</g>
</svg>
